<?xml version="1.0" standalone="no"?>
<!DOCTYPE svg PUBLIC "-//W3C//DTD SVG 20010904//EN"
 "http://www.w3.org/TR/2001/REC-SVG-20010904/DTD/svg10.dtd">
<svg version="1.0" xmlns="http://www.w3.org/2000/svg"
 width="590.000000pt" height="600.000000pt" viewBox="0 0 590.000000 600.000000"
 preserveAspectRatio="xMidYMid meet">

<g transform="translate(0.000000,600.000000) scale(0.100000,-0.100000)"
fill="#000000" stroke="none">
<path d="M2823 5080 c-24 -5 -57 -15 -75 -23 -18 -8 -54 -22 -79 -31 -68 -24
-154 -92 -249 -196 -158 -172 -214 -216 -300 -234 -63 -12 -178 -76 -230 -126
-31 -31 -63 -75 -83 -117 -29 -62 -32 -76 -30 -156 1 -68 7 -98 24 -133 26
-55 26 -67 0 -168 -23 -87 -27 -186 -9 -256 6 -25 11 -124 12 -220 2 -148 5
-182 22 -221 24 -59 81 -127 136 -165 24 -16 45 -32 46 -36 2 -5 8 -8 13 -8 6
0 15 -4 22 -10 142 -114 137 -107 202 -255 15 -33 36 -79 46 -102 22 -45 99
-123 123 -123 25 0 28 -19 12 -73 -20 -64 -87 -458 -80 -469 3 -4 11 -8 19 -8
14 0 17 12 35 120 5 36 21 128 35 205 14 77 28 158 31 180 5 34 19 53 87 121
45 44 138 125 207 179 69 54 129 102 134 106 8 7 8 50 2 170 0 13 -15 17 -76
22 -122 8 -242 64 -347 160 -37 34 -47 38 -75 33 -30 -5 -33 -4 -34 19 -1 14
-20 49 -41 78 -55 72 -56 76 -43 92 9 10 33 15 76 15 51 0 65 4 73 18 15 29
-14 76 -91 144 -64 57 -68 63 -52 75 10 7 29 13 43 13 14 0 43 5 64 11 46 12
49 40 11 105 l-26 44 21 43 c12 24 21 47 21 51 0 13 73 120 95 139 36 32 103
68 236 128 140 64 209 106 249 153 47 56 60 81 61 126 1 25 4 56 8 70 7 22 9
19 24 -30 18 -61 55 -109 104 -134 18 -9 88 -32 155 -52 68 -20 134 -39 148
-44 22 -7 99 -48 125 -67 17 -13 65 -74 65 -83 0 -5 -10 -12 -22 -15 -55 -17
-129 -60 -179 -104 -46 -42 -53 -52 -52 -84 1 -29 -2 -35 -16 -30 -15 5 -15 4
1 -12 9 -10 28 -17 42 -17 31 0 31 -4 9 -49 -21 -42 -29 -165 -14 -212 7 -19
20 -42 31 -52 19 -17 23 -17 87 0 47 12 119 19 233 22 114 2 167 7 172 16 5 7
15 35 24 64 19 66 7 120 -42 179 l-34 42 26 72 c14 40 22 75 19 78 -3 3 -18
-6 -33 -19 -53 -48 -55 -49 -96 -35 -22 7 -33 15 -26 18 33 11 0 208 -52 312
-67 134 -208 290 -368 408 -52 39 -147 123 -210 187 -64 66 -133 126 -155 136
-45 21 -147 29 -212 15z m964 -1056 c-8 -9 -137 -14 -137 -6 0 7 46 40 85 60
17 9 23 6 39 -19 10 -16 16 -32 13 -35z m23 -106 c52 -16 87 -44 114 -91 29
-51 37 -91 28 -136 l-7 -34 -145 -2 c-113 -2 -160 -7 -215 -23 -43 -13 -74
-17 -79 -12 -16 15 -19 126 -6 177 18 76 69 118 159 133 50 8 95 5 151 -12z
m-1491 -122 c9 -11 3 -15 -30 -20 -80 -13 -127 -97 -95 -168 9 -18 21 -41 28
-51 9 -12 10 -20 2 -25 -48 -33 -58 -130 -23 -213 12 -27 19 -53 15 -56 -10
-10 -71 25 -121 69 -62 55 -90 123 -89 223 0 61 5 89 21 120 26 50 60 88 93
106 52 27 181 37 199 15z m-123 -628 c2 -58 29 -121 79 -183 29 -35 30 -27 10
70 -19 87 -19 109 -1 124 13 11 14 5 9 -41 -5 -49 13 -140 42 -211 7 -16 5
-16 -19 -6 -26 12 -106 121 -125 170 -5 14 -12 51 -16 83 -6 47 -5 58 6 54 9
-3 14 -23 15 -60z"/>
<path d="M3845 3750 c-8 -27 1 -40 29 -40 33 0 53 25 36 45 -18 22 -57 19 -65
-5z"/>
<path d="M2747 4129 c-45 -10 -109 -42 -125 -61 -10 -12 5 -15 96 -15 154 -1
270 -37 431 -133 88 -52 108 -54 131 -10 16 29 13 45 -5 30 -13 -11 -15 -8
-15 17 0 38 -25 64 -105 109 -116 64 -288 91 -408 63z"/>
<path d="M2520 3972 c0 -3 30 -37 67 -74 64 -65 66 -67 54 -96 -24 -58 -30
-105 -19 -161 11 -61 50 -147 70 -154 7 -2 38 5 68 15 91 31 217 49 355 52 72
1 136 5 142 9 15 10 33 71 33 116 0 109 -125 222 -288 261 -64 15 -167 15
-205 1 -54 -21 -127 -11 -264 34 -7 3 -13 1 -13 -3z m565 -118 c102 -48 165
-124 165 -198 0 -65 -3 -68 -94 -61 -98 8 -278 -15 -354 -43 l-53 -21 -20 32
c-22 36 -25 104 -8 172 32 129 216 189 364 119z"/>
<path d="M3112 3698 c-16 -16 -15 -43 3 -58 12 -10 20 -9 40 4 26 17 29 24 19
50 -7 19 -45 21 -62 4z"/>
<path d="M3870 3562 c-23 -17 -47 -51 -69 -97 -53 -109 -176 -253 -266 -311
-16 -10 -32 -21 -35 -25 -10 -13 -98 -48 -146 -59 -27 -7 -98 -17 -159 -23
l-110 -12 3 -100 c4 -116 0 -110 127 -176 44 -23 131 -71 192 -108 89 -52 116
-73 130 -101 32 -67 27 -250 -11 -355 -15 -42 56 52 81 107 15 32 29 56 31 54
5 -5 55 -147 85 -239 16 -47 26 -66 37 -64 10 2 14 12 12 29 -2 26 -63 179
-103 262 -16 33 -18 54 -13 145 5 98 4 111 -20 174 -37 95 -34 134 15 231 22
44 51 96 65 115 13 18 28 50 34 70 13 46 13 136 0 180 -9 31 -6 40 27 90 21
31 39 49 41 42 2 -7 1 -16 -4 -20 -18 -12 -37 -60 -30 -76 3 -9 24 -24 46 -33
28 -12 38 -21 34 -32 -3 -8 -8 -30 -11 -48 -5 -31 -1 -38 53 -88 32 -30 60
-54 62 -54 12 0 -8 84 -24 101 -14 16 -15 23 -6 45 19 40 14 92 -10 125 -23
30 -23 30 -4 62 38 64 59 112 64 149 4 33 1 39 -19 46 -54 21 -64 20 -99 -6z"/>
<path d="M3089 3475 c-96 -31 -136 -58 -176 -120 -41 -62 -45 -123 -10 -155
20 -20 28 -21 97 -14 41 5 120 6 175 4 55 -3 137 -4 182 -4 105 2 145 24 180
101 30 64 24 89 -35 146 -72 70 -265 89 -413 42z m320 -33 c44 -16 0 -20 -119
-10 -157 14 -172 32 -20 25 63 -3 126 -10 139 -15z m-334 -120 c61 -31 137
-106 89 -88 -9 4 -64 1 -122 -6 -99 -11 -105 -11 -119 8 -17 23 -10 69 14 97
14 15 26 17 63 12 24 -4 58 -14 75 -23z"/>
<path d="M2890 2778 c0 -14 64 -126 87 -153 10 -11 38 -35 62 -53 73 -52 131
-37 117 30 -16 78 -27 108 -43 108 -13 0 -14 -8 -9 -50 4 -28 9 -57 12 -65 9
-24 -17 -18 -65 14 -50 34 -77 63 -122 132 -32 51 -39 57 -39 37z"/>
<path d="M2883 1105 c-40 -17 -67 -57 -59 -89 3 -13 21 -36 38 -50 18 -15 47
-38 63 -52 l30 -24 -60 2 c-56 3 -60 2 -63 -20 -6 -39 24 -62 80 -62 73 0 108
22 108 68 0 40 -28 79 -80 111 -27 17 -50 37 -50 45 0 20 58 30 92 17 32 -12
44 0 29 28 -10 18 -60 42 -85 41 -6 -1 -25 -7 -43 -15z"/>
<path d="M3355 1009 c-21 -17 -29 -19 -35 -9 -5 7 -15 10 -25 6 -15 -6 -17
-16 -11 -79 5 -47 13 -76 23 -84 22 -17 49 0 57 34 10 43 28 83 36 83 4 0 10
-14 14 -32 3 -17 11 -37 17 -45 14 -15 45 -17 54 -3 12 20 -7 91 -32 120 -29
36 -60 38 -98 9z"/>
<path d="M3177 1003 c-3 -10 -10 -40 -17 -66 -7 -26 -18 -46 -24 -44 -6 2 -15
26 -21 54 -5 28 -14 55 -18 60 -15 14 -37 -29 -37 -73 0 -91 41 -131 104 -101
24 11 37 12 44 5 6 -6 18 -8 28 -4 14 5 15 14 9 49 -4 23 -11 62 -14 87 -5 36
-10 46 -28 48 -14 2 -23 -3 -26 -15z"/>
</g>
</svg>
